<?xml version="1.0" encoding="utf-8"?>
<!-- Generator: Adobe Illustrator 24.3.0, SVG Export Plug-In . SVG Version: 6.00 Build 0)  -->
<svg version="1.1" id="Layer_3" xmlns="http://www.w3.org/2000/svg" xmlns:xlink="http://www.w3.org/1999/xlink" x="0px" y="0px"
	 viewBox="0 0 1000 1000" style="enable-background:new 0 0 1000 1000;" xml:space="preserve">
<style type="text/css">
	.st0{fill:#231079;}
	.st1{fill:#FFFFFF;}
	.st2{fill:none;stroke:#231079;stroke-width:9;stroke-linecap:round;stroke-miterlimit:10;}
</style>
<g>
	<circle class="st0" cx="500" cy="500" r="489"/>
	<circle class="st1" cx="500" cy="500" r="367.9"/>
	<g>
		<path class="st1" d="M290.5,842.1l10.7,6.8l-21.3,33.7c-2.8,4.4-5.3,7.6-7.6,9.4c-3,2.4-6.5,3.7-10.4,3.9c-3.9,0.2-8.1-1.2-12.6-4
			c-5.3-3.3-8.4-7.3-9.4-12.1c-1-4.7,0.3-10,3.9-15.7l10.9,5.2c-1.8,3.1-2.7,5.6-2.7,7.3c0,2.6,1.1,4.7,3.5,6.2
			c2.4,1.5,4.5,1.9,6.4,1.2c1.9-0.7,4.1-3.3,6.9-7.6L290.5,842.1z"/>
		<path class="st1" d="M335.4,935.2l-12.6-5.8l1-15.3l-22.9-10.5l-10.7,10.8l-12.3-5.6l48.6-47.1l12.2,5.6L335.4,935.2z
			 M324.5,902.8l1.8-24.9l-17.5,17.7L324.5,902.8z"/>
		<path class="st1" d="M347.4,938.9l17.9-59.9l12.2,3.6l-14.9,49.7l30.3,9.1l-3,10.2L347.4,938.9z"/>
		<path class="st1" d="M403.8,954.7l9.9-62.2l20.2,3.2c7.6,1.2,12.6,2.3,14.8,3.3c3.4,1.5,6.1,4,8,7.5s2.5,7.7,1.7,12.7
			c-0.6,3.8-1.8,6.9-3.6,9.3c-1.8,2.4-3.9,4.1-6.3,5.3c-2.4,1.1-4.7,1.8-7,1.9c-3.1,0.1-7.5-0.3-13.2-1.2l-8.2-1.3l-3.7,23.5
			L403.8,954.7z M424.6,905l-2.8,17.7l6.9,1.1c5,0.8,8.3,1,10.1,0.6c1.8-0.4,3.2-1.2,4.4-2.4c1.2-1.2,1.9-2.8,2.2-4.6
			c0.4-2.3,0-4.2-1.1-5.9c-1.1-1.7-2.6-2.9-4.6-3.6c-1.5-0.5-4.4-1.1-9-1.9L424.6,905z"/>
		<path class="st1" d="M517,964.9l-13.8-0.4l-5.1-14.5l-25.2-0.8l-5.6,14.1l-13.5-0.4l26.4-62.2l13.4,0.4L517,964.9z M494.4,939.2
			l-8-23.6l-9.2,23.1L494.4,939.2z"/>
		<path class="st1" d="M527.1,963.4l-4.5-62.9l12.7-0.9l4.5,62.9L527.1,963.4z"/>
		<path class="st1" d="M580.8,933.6l-1.9-10.4l27-4.9l4.5,24.7c-2.2,3-5.6,5.9-10.2,8.8c-4.6,2.8-9.5,4.7-14.6,5.6
			c-6.5,1.2-12.4,0.8-17.7-1c-5.3-1.8-9.6-5.1-13-9.7c-3.3-4.6-5.6-9.9-6.6-15.9c-1.2-6.5-0.9-12.4,0.9-17.9
			c1.8-5.5,5.1-10.1,9.8-13.7c3.6-2.8,8.4-4.7,14.3-5.8c7.7-1.4,14-0.9,18.9,1.6c4.9,2.4,8.5,6.4,10.8,11.9l-12,4.6
			c-1.4-2.9-3.5-5-6.2-6.3s-5.9-1.7-9.5-1c-5.5,1-9.5,3.5-12.1,7.6c-2.6,4.1-3.3,9.5-2,16.3c1.3,7.4,4,12.6,7.9,15.7
			c3.9,3.1,8.6,4.1,13.9,3.2c2.6-0.5,5.2-1.5,7.6-3s4.5-3.2,6.1-5l-1.4-7.9L580.8,933.6z"/>
		<path class="st1" d="M608.2,887.2l12-4.2l11.2,32.2c1.8,5.1,3.1,8.4,3.9,9.8c1.4,2.3,3.3,3.8,5.7,4.6c2.4,0.8,5.3,0.6,8.7-0.6
			c3.4-1.2,5.7-2.8,7-4.8c1.2-2,1.7-4.1,1.3-6.2c-0.4-2.2-1.4-5.6-3-10.3l-11.5-32.9l12-4.2l10.9,31.2c2.5,7.1,3.9,12.3,4.3,15.5
			c0.4,3.2,0.1,6.1-1,8.7c-1,2.6-2.8,5.1-5.3,7.3s-6.1,4.2-10.8,5.8c-5.7,2-10.2,2.8-13.6,2.5c-3.4-0.3-6.3-1.2-8.7-2.7
			c-2.4-1.5-4.3-3.3-5.7-5.4c-2-3.1-4.1-8-6.4-14.7L608.2,887.2z"/>
		<path class="st1" d="M694.1,922.5l-29.4-55.7l23.7-12.5c6-3.1,10.5-4.9,13.8-5.4c3.2-0.4,6.3,0.2,9.3,1.9s5.3,4.2,7.1,7.5
			c2.2,4.2,2.8,8.3,1.8,12.3c-1,4-3.8,7.7-8.3,11c3.2,0.1,6,0.6,8.5,1.5c2.5,0.9,6.2,2.7,11.2,5.7l12.5,7.3l-13.5,7.1l-14.5-7.8
			c-5.2-2.8-8.6-4.5-10.3-5.1c-1.7-0.6-3.2-0.7-4.6-0.5c-1.4,0.2-3.4,1-6,2.4l-2.3,1.2l12.3,23.3L694.1,922.5z M688.4,884.4l8.3-4.4
			c5.4-2.9,8.6-4.9,9.7-6c1.1-1.2,1.7-2.5,1.9-4c0.2-1.5-0.2-3.1-1.1-4.8c-1-1.9-2.3-3.1-3.9-3.7c-1.6-0.6-3.4-0.6-5.4,0.1
			c-1,0.4-3.7,1.7-8.3,4.1l-8.8,4.6L688.4,884.4z"/>
		<path class="st1" d="M752.5,889.5l-35-52.4l10.6-7.1l35,52.4L752.5,889.5z"/>
	</g>
	<g>
		<path class="st1" d="M101,489l0.9,15.2l-15.3,6.9l1.6,27.6l16,4.8l0.9,14.8l-70.6-22.9l-0.9-14.7L101,489z M75.2,516.3l-25.1,11
			l26.2,7.8L75.2,516.3z"/>
		<path class="st1" d="M101.7,484.1l-68.8-7.5l1.5-13.5l49-23.2l-45.9-5l1.4-12.9l68.8,7.5l-1.5,13.9l-47.8,22.8l44.8,4.9
			L101.7,484.1z"/>
		<path class="st1" d="M126.9,357.7l-4.2,14.6l-16.8,1.5l-7.6,26.6l13.5,9.8l-4.1,14.2l-59.1-44.8l4-14.2L126.9,357.7z M93.6,375
			l-27.3,2.1l22.1,16L93.6,375z"/>
		<path class="st1" d="M129.2,353.4l-62.4-29.9l5.9-12.3l53.9-5.6l-41.7-20l5.6-11.7l62.4,29.9l-6.1,12.6l-52.7,5.7l40.7,19.5
			L129.2,353.4z"/>
		<path class="st1" d="M102.5,253.6l14.7-20.8c3.3-4.7,6.2-8,8.7-10c3.3-2.6,7.1-4.2,11.2-4.8c4.2-0.6,8.5-0.2,13,1.1
			c4.5,1.3,9.4,3.8,14.7,7.6c4.6,3.3,8.2,6.7,10.8,10.2c3.1,4.3,5,8.7,5.7,13.1c0.5,3.3,0.1,7.1-1.2,11.2c-1,3.1-3,6.7-5.9,10.9
			l-15.2,21.5L102.5,253.6z M120.1,248.9l37.4,26.4l6-8.5c2.3-3.2,3.7-5.6,4.3-7.3c0.8-2.2,1.1-4.3,0.9-6.3c-0.2-2-1.4-4.3-3.3-6.8
			c-2-2.6-5.2-5.4-9.5-8.5c-4.4-3.1-8-5.1-10.9-6c-2.9-0.9-5.5-1.1-7.8-0.6c-2.3,0.5-4.4,1.6-6.4,3.4c-1.5,1.3-3.9,4.3-7.2,9
			L120.1,248.9z"/>
		<path class="st1" d="M242.5,195l-10.7,10.8l-15.4-6.8l-19.5,19.6l7.1,15.1l-10.4,10.5l-30-67.9l10.4-10.5L242.5,195z M204.9,194
			L180,182.6l11.6,24.7L204.9,194z"/>
		<path class="st1" d="M287.9,133.5l13.7-3.6c2.3,7.5,2.4,14.1,0.2,19.7c-2.1,5.7-6.3,10.5-12.6,14.5c-7.8,4.9-15.8,6.3-24.2,4.2
			c-8.4-2.1-15.4-7.8-21.3-17c-6.2-9.7-8.4-18.9-6.8-27.4c1.6-8.6,6.5-15.4,14.7-20.6c7.1-4.5,14.3-6.1,21.4-4.7
			c4.2,0.8,8.5,3.1,12.8,7l-9.9,10.2c-2.6-2.6-5.6-4.1-8.9-4.4c-3.3-0.4-6.5,0.4-9.7,2.4c-4.3,2.7-6.9,6.5-7.6,11.3
			c-0.7,4.8,1.1,10.7,5.5,17.7c4.7,7.4,9.3,11.8,14,13.3c4.6,1.5,9.1,0.8,13.3-1.9c3.1-2,5.2-4.7,6.2-8.1
			C290,142.5,289.6,138.4,287.9,133.5z"/>
		<path class="st1" d="M321.3,143.6l-26.6-63.8l12.9-5.4L318,99.5l25.2-10.5l-10.5-25.1l12.9-5.4l26.6,63.8l-12.9,5.4l-11.6-27.9
			l-25.2,10.5l11.6,27.9L321.3,143.6z"/>
		<path class="st1" d="M444.3,104.7l-14.8,3.4l-9.4-14l-26.9,6.2l-2,16.6l-14.4,3.3l10.8-73.4l14.4-3.3L444.3,104.7z M413.1,83.8
			l-15-22.9L394.7,88L413.1,83.8z"/>
		<path class="st1" d="M449.2,104.6l-4-69l13.6-0.8l30.9,44.5L487,33.1l13-0.7l4,69l-14,0.8l-30.4-43.4l2.6,45L449.2,104.6z"/>
		<path class="st1" d="M523.6,32.9l25.4,2.8c5.7,0.6,10,1.5,12.9,2.7c3.9,1.6,7.1,4.1,9.7,7.5c2.5,3.3,4.3,7.3,5.3,11.9
			c1,4.6,1.2,10.1,0.5,16.5c-0.6,5.7-1.9,10.5-3.7,14.4c-2.3,4.8-5.2,8.6-8.7,11.3c-2.7,2.1-6.1,3.6-10.4,4.4
			c-3.2,0.6-7.3,0.7-12.4,0.1l-26.1-2.9L523.6,32.9z M536.2,46.1l-5,45.5l10.4,1.1c3.9,0.4,6.7,0.5,8.5,0.3c2.3-0.3,4.3-1.1,5.9-2.2
			c1.6-1.2,3.1-3.3,4.4-6.2s2.2-7.1,2.8-12.4c0.6-5.3,0.6-9.4-0.1-12.4s-1.7-5.3-3.2-7.1c-1.5-1.8-3.5-3.1-6.1-3.9
			c-1.9-0.7-5.7-1.3-11.3-1.9L536.2,46.1z"/>
		<path class="st1" d="M582.6,109.9l19-66.5l28.3,8.1c7.1,2,12.1,4.1,15,6.2c2.9,2.1,4.9,5,5.9,8.6c1.1,3.6,1,7.4-0.1,11.3
			c-1.4,5-4.1,8.7-7.9,11.1c-3.9,2.4-8.8,3.2-14.9,2.4c2.4,2.5,4.3,5.1,5.6,7.6c1.3,2.6,2.8,6.9,4.6,13l4.4,15.3l-16.1-4.6
			l-5.6-17.2c-2-6.2-3.4-10.1-4.3-11.8c-0.9-1.7-2-3-3.2-3.9c-1.3-0.9-3.5-1.8-6.5-2.7L604,86l-7.9,27.8L582.6,109.9z M607,75.4
			l9.9,2.8c6.4,1.8,10.5,2.7,12.3,2.6c1.8-0.1,3.3-0.7,4.6-1.7c1.3-1.1,2.2-2.6,2.8-4.6c0.6-2.2,0.6-4.2-0.2-5.9
			c-0.8-1.7-2.2-3.1-4.3-4.1c-1-0.5-4.3-1.5-9.7-3l-10.5-3L607,75.4z"/>
		<path class="st1" d="M703,156.3l-13.7-6.6l1.4-16.8l-24.9-12l-11.9,11.7l-13.4-6.4l54.2-50.7l13.3,6.4L703,156.3z M691.7,120.5
			l2.5-27.3l-19.5,19.1L691.7,120.5z"/>
		<path class="st1" d="M776.1,179l7.9,11.8c-6.3,4.6-12.5,6.8-18.6,6.7c-6.1-0.1-12-2.5-17.8-7.1c-7.2-5.7-11.1-12.9-11.9-21.5
			c-0.7-8.6,2.3-17.1,9.1-25.7c7.2-9,15.1-14.2,23.7-15.4c8.6-1.3,16.7,1.1,24.3,7.1c6.6,5.3,10.4,11.5,11.5,18.7
			c0.6,4.3-0.2,9.1-2.4,14.4l-12.9-6c1.6-3.3,2-6.6,1.3-9.8c-0.7-3.2-2.6-6-5.5-8.3c-4-3.2-8.4-4.3-13.2-3.5
			c-4.8,0.9-9.8,4.6-14.9,11c-5.4,6.8-8.1,12.7-7.9,17.6c0.2,4.9,2.2,8.9,6.1,12c2.9,2.3,6.1,3.4,9.7,3.2
			C768.2,183.9,772,182.2,776.1,179z"/>
		<path class="st1" d="M801.3,188.8c5.3-4.7,10.4-7.8,15.4-9.4c3.7-1.2,7.5-1.6,11.4-1.5c3.9,0.2,7.4,1,10.6,2.6
			c4.2,2,8.2,5.1,11.9,9.3c6.8,7.6,9.8,15.8,9.1,24.6c-0.7,8.8-5.2,16.9-13.7,24.4c-8.4,7.4-16.9,10.9-25.7,10.6
			c-8.7-0.4-16.5-4.3-23.2-12c-6.8-7.7-9.9-15.9-9.2-24.6C788.6,204.1,793,196.1,801.3,188.8z M811.2,199.3
			c-5.9,5.2-9.1,10.5-9.7,15.9c-0.6,5.4,0.9,10.2,4.6,14.3c3.7,4.2,8.2,6.3,13.6,6.3c5.4,0,11.1-2.6,17.1-8
			c5.9-5.3,9.2-10.5,9.8-15.7s-1-9.9-4.8-14.2c-3.8-4.3-8.4-6.5-13.7-6.5C822.7,191.4,817.1,194,811.2,199.3z"/>
		<path class="st1" d="M824.7,269.3l58-36.6l7.5,11.8L842,274.8l18.5,29.4l-9.9,6.2L824.7,269.3z"/>
		<path class="st1" d="M854.2,317.6l62.6-28l5.7,12.7l-52,23.2l14.2,31.7l-10.6,4.8L854.2,317.6z"/>
		<path class="st1" d="M876.5,369.2l66.6-18.5l13.7,49.4l-11.3,3.1l-10-36l-14.8,4.1l9.3,33.5l-11.2,3.1l-9.3-33.5l-18.1,5
			l10.3,37.2l-11.2,3.1L876.5,369.2z"/>
		<path class="st1" d="M921.1,458.3l11.6-1.2l3,29.9l-27.4,2.8c-3.1-2.6-6-6.6-8.7-11.9c-2.7-5.3-4.3-10.8-4.9-16.5
			c-0.7-7.2,0.1-13.6,2.6-19.3c2.5-5.7,6.4-10.1,11.7-13.4c5.3-3.3,11.3-5.2,17.9-5.9c7.2-0.7,13.7,0.1,19.6,2.6
			c5.9,2.4,10.6,6.4,14.2,11.9c2.7,4.2,4.4,9.6,5.1,16.1c0.9,8.5-0.2,15.4-3.3,20.6c-3.1,5.2-7.7,8.8-13.9,10.8l-4-13.5
			c3.3-1.3,5.8-3.4,7.4-6.3c1.7-2.9,2.3-6.3,1.9-10.3c-0.6-6.1-3-10.7-7.2-13.9c-4.2-3.2-10.1-4.4-17.7-3.6
			c-8.2,0.8-14.1,3.3-17.8,7.3c-3.7,4-5.3,9-4.7,14.9c0.3,2.9,1.2,5.8,2.6,8.6c1.4,2.8,3.1,5.2,4.9,7.1l8.7-0.9L921.1,458.3z"/>
		<path class="st1" d="M898.5,501l69,4.5l-3.3,51.2l-11.7-0.8l2.4-37.2l-15.3-1l-2.3,34.6l-11.6-0.8l2.3-34.6l-18.8-1.2l-2.5,38.6
			l-11.6-0.8L898.5,501z"/>
	</g>
</g>
<g>
	<polygon class="st0" points="614.5,387.8 500,476.7 385.5,387.8 399.5,327.9 500,249.2 600.5,327.9 	"/>
	
		<rect x="460.1" y="321.8" transform="matrix(0.7071 -0.7071 0.7071 0.7071 -109.3219 459.4962)" class="st1" width="79.9" height="79.9"/>
	
		<rect x="477.5" y="338.4" transform="matrix(0.7071 -0.7071 0.7071 0.7071 -108.7728 459.2687)" class="st0" width="45.1" height="45.1"/>
	<polygon class="st0" points="512.6,439.5 500,439.5 487.4,439.5 475.8,629.8 500,629.8 524.2,629.8 	"/>
	<g>
		<path class="st2" d="M500,460.5c-1.3,8.3-4.8,20.9-15,30.6c-22.4,21.3-65.2,17.9-83.6-4.9c-6.6-8.2-8.8-17.4-9.6-24"/>
		<path class="st2" d="M500,500.6c-0.5,6.4-2.6,20.3-12.7,33.1c-18.1,22.8-46.8,22.7-52.8,22.7c-5.1,0-35.6,0-53.8-24.1
			c-8.4-11-10.8-22.6-11.6-29.2"/>
		<path class="st2" d="M500,534.2c-1.7,39.3-34.1,71.7-73.5,71.8c-31.4,0-70-12.4-87.4-61.2"/>
	</g>
	<g>
		<path class="st2" d="M500,460.5c1.3,8.3,4.8,20.9,15,30.6c22.4,21.3,65.2,17.9,83.6-4.9c6.6-8.2,8.8-17.4,9.6-24"/>
		<path class="st2" d="M500,500.6c0.5,6.4,2.6,20.3,12.7,33.1c18.1,22.8,46.8,22.7,52.8,22.7c5.1,0,35.6,0,53.8-24.1
			c8.4-11,10.8-22.6,11.6-29.2"/>
		<path class="st2" d="M500,534.2c1.7,39.3,34.1,71.7,73.5,71.8c31.4,0,70-12.4,87.4-61.2"/>
	</g>
</g>
<g>
	<path d="M243.9,725.1v-69.2h51.3v11.7h-37.3V683h34.7v11.7h-34.7v18.8h38.6v11.7H243.9z"/>
	<path d="M304.8,702.6l13.6-1.3c0.8,4.6,2.5,7.9,5,10c2.5,2.1,5.9,3.2,10.1,3.2c4.5,0,7.9-1,10.2-2.9c2.3-1.9,3.4-4.1,3.4-6.7
		c0-1.6-0.5-3-1.4-4.2c-1-1.1-2.6-2.1-5-3c-1.6-0.6-5.4-1.6-11.2-3c-7.5-1.9-12.7-4.1-15.8-6.8c-4.2-3.8-6.4-8.4-6.4-13.9
		c0-3.5,1-6.8,3-9.9c2-3.1,4.9-5.4,8.6-7c3.8-1.6,8.3-2.4,13.6-2.4c8.7,0,15.2,1.9,19.6,5.7c4.4,3.8,6.7,8.9,6.9,15.2l-14,0.6
		c-0.6-3.6-1.9-6.1-3.8-7.7c-2-1.6-4.9-2.3-8.8-2.3c-4.1,0-7.2,0.8-9.5,2.5c-1.5,1.1-2.2,2.5-2.2,4.3c0,1.6,0.7,3,2.1,4.2
		c1.8,1.5,6,3,12.8,4.6c6.8,1.6,11.8,3.3,15.1,5c3.3,1.7,5.8,4.1,7.6,7c1.8,3,2.8,6.6,2.8,11c0,4-1.1,7.7-3.3,11.1
		c-2.2,3.5-5.3,6-9.3,7.7c-4,1.7-9,2.5-15,2.5c-8.7,0-15.5-2-20.1-6.1S305.7,710.3,304.8,702.6z"/>
	<path d="M388.3,725.1v-57.5h-20.5v-11.7h55v11.7h-20.5v57.5H388.3z"/>
	<path d="M431.7,655.9h25.5c5.8,0,10.1,0.4,13.2,1.3c4.1,1.2,7.5,3.3,10.4,6.4c2.9,3.1,5.1,6.8,6.6,11.2c1.5,4.4,2.3,9.9,2.3,16.3
		c0,5.7-0.7,10.6-2.1,14.7c-1.7,5-4.2,9.1-7.4,12.2c-2.4,2.4-5.7,4.2-9.8,5.5c-3.1,1-7.2,1.5-12.4,1.5h-26.3V655.9z M445.7,667.6
		v45.8h10.4c3.9,0,6.7-0.2,8.4-0.7c2.3-0.6,4.1-1.5,5.6-2.9c1.5-1.4,2.7-3.6,3.7-6.7c0.9-3.1,1.4-7.3,1.4-12.7
		c0-5.3-0.5-9.4-1.4-12.3c-0.9-2.9-2.3-5.1-4-6.7c-1.7-1.6-3.9-2.7-6.5-3.3c-1.9-0.4-5.8-0.7-11.5-0.7H445.7z"/>
	<path d="M586.2,725.1H573v-50c-4.8,4.5-10.6,7.9-17.1,10v-12c3.5-1.1,7.2-3.3,11.3-6.4c4.1-3.2,6.8-6.8,8.3-11.1h10.8V725.1z"/>
	<path d="M606.3,709.1l12.8-1.4c0.3,2.6,1.1,4.5,2.5,5.8c1.3,1.3,3.1,1.9,5.2,1.9c2.7,0,5.1-1.3,7-3.8c1.9-2.5,3.1-7.7,3.7-15.7
		c-3.3,3.9-7.5,5.8-12.5,5.8c-5.4,0-10.1-2.1-14.1-6.3c-3.9-4.2-5.9-9.7-5.9-16.4c0-7,2.1-12.7,6.3-17c4.2-4.3,9.5-6.4,15.9-6.4
		c7,0,12.8,2.7,17.3,8.1c4.5,5.4,6.7,14.3,6.7,26.8c0,12.6-2.3,21.8-7,27.4c-4.7,5.6-10.8,8.4-18.3,8.4c-5.4,0-9.8-1.4-13.1-4.3
		C609.4,719.1,607.3,714.8,606.3,709.1z M636.3,680.1c0-4.3-1-7.6-2.9-10c-2-2.4-4.2-3.5-6.8-3.5c-2.5,0-4.5,1-6.1,2.9
		c-1.6,1.9-2.4,5.1-2.4,9.5c0,4.5,0.9,7.7,2.6,9.8c1.8,2.1,4,3.1,6.6,3.1c2.5,0,4.7-1,6.4-3C635.5,687,636.3,684,636.3,680.1z"/>
	<path d="M685.8,725.1v-13.9h-28.3v-11.6l30-43.9h11.1v43.9h8.6v11.7h-8.6v13.9H685.8z M685.8,699.5v-23.6l-15.9,23.6H685.8z"/>
	<path d="M758.3,712.8v12.3h-46.5c0.5-4.7,2-9.1,4.5-13.2c2.5-4.2,7.5-9.7,14.9-16.6c6-5.6,9.6-9.3,11-11.3c1.8-2.7,2.7-5.4,2.7-8.1
		c0-3-0.8-5.2-2.4-6.8c-1.6-1.6-3.8-2.4-6.6-2.4c-2.8,0-5,0.8-6.6,2.5c-1.6,1.7-2.6,4.4-2.8,8.3l-13.2-1.3
		c0.8-7.3,3.3-12.5,7.4-15.7c4.2-3.2,9.3-4.8,15.6-4.8c6.8,0,12.2,1.8,16.1,5.5c3.9,3.7,5.8,8.3,5.8,13.7c0,3.1-0.6,6.1-1.7,8.9
		c-1.1,2.8-2.9,5.8-5.3,8.8c-1.6,2-4.5,5-8.7,8.8c-4.2,3.8-6.8,6.4-7.9,7.6c-1.1,1.3-2,2.5-2.7,3.7H758.3z"/>
</g>
<g>
	<path class="st0" d="M216.3,396l-9.2-3.3l8.6-23.8l21.8,7.9c1.4,3.1,2.2,7.2,2.3,12.2c0.1,5-0.6,9.7-2.3,14.2
		c-2.1,5.7-5.1,10.3-9,13.6c-3.9,3.4-8.5,5.3-13.7,5.9c-5.2,0.5-10.5-0.2-15.7-2.1c-5.7-2.1-10.3-5.1-13.9-9.1
		c-3.6-4-5.7-8.7-6.4-14.2c-0.5-4.2,0.1-8.8,2-14.1c2.5-6.8,5.8-11.6,10-14.4c4.2-2.8,9-3.8,14.5-3.1l-1.9,11.7
		c-3-0.2-5.6,0.5-7.9,2c-2.3,1.6-4.1,3.9-5.2,7.1c-1.7,4.8-1.6,9.2,0.4,13.2c2,3.9,6,7,12.1,9.2c6.5,2.3,11.9,2.7,16.2,1
		c4.3-1.7,7.3-4.9,9-9.6c0.8-2.3,1.2-4.8,1.2-7.4c-0.1-2.7-0.4-5-1.1-7.2l-6.9-2.5L216.3,396z"/>
	<path class="st0" d="M223,359c-5-3.2-8.7-6.5-11.2-10.2c-1.8-2.7-3.1-5.6-3.9-8.8c-0.8-3.2-0.9-6.2-0.4-9.1
		c0.6-3.9,2.2-7.8,4.7-11.8c4.6-7.2,10.5-11.6,17.7-13.1c7.2-1.5,14.8,0.2,22.8,5.3c7.9,5,12.8,11.1,14.6,18.2
		c1.8,7.1,0.4,14.3-4.2,21.5c-4.6,7.3-10.5,11.7-17.7,13.2C238.4,365.7,230.9,364,223,359z M229.1,348.6c5.6,3.5,10.6,4.9,15.1,4.1
		c4.5-0.8,8-3.1,10.5-7.1c2.5-4,3.1-8.1,1.9-12.4c-1.3-4.3-4.7-8.3-10.4-11.9c-5.6-3.5-10.6-5-14.9-4.2c-4.3,0.7-7.8,3.1-10.4,7.2
		c-2.6,4.1-3.2,8.3-2,12.5C220,341.1,223.5,345,229.1,348.6z"/>
	<path class="st0" d="M292.1,311.2l-56.4-25l8.8-9.2l41.3,19L264.4,256l8.6-9l27.8,55.1L292.1,311.2z"/>
	<path class="st0" d="M328.8,277.4l-28.7-38.8l-13.9,10.2l-5.8-7.9l37.2-27.4l5.8,7.9l-13.8,10.2l28.7,38.8L328.8,277.4z"/>
	<path class="st0" d="M350.2,262.4l-5.8-9.5l9.5-5.8l5.8,9.5L350.2,262.4z"/>
	<path class="st0" d="M378.3,225l10.4-4.8c1.9,3.4,4.2,5.6,6.7,6.6c2.6,1,5.5,0.9,8.9-0.3c3.6-1.2,6-2.9,7.3-5.1
		c1.3-2.1,1.6-4.2,0.9-6.2c-0.5-1.3-1.2-2.3-2.3-2.9c-1.1-0.6-2.7-1-4.8-1c-1.5,0-4.7,0.2-9.7,0.7c-6.4,0.6-11.2,0.3-14.4-1.1
		c-4.4-1.8-7.4-4.9-8.9-9.3c-1-2.8-1.1-5.7-0.4-8.7c0.7-3,2.4-5.6,4.9-7.9c2.5-2.3,5.9-4.2,10.1-5.7c6.9-2.4,12.6-2.7,17.1-0.9
		c4.5,1.8,7.8,5.2,9.7,10.2l-10.9,4.4c-1.5-2.7-3.2-4.3-5.2-5c-2-0.7-4.5-0.5-7.7,0.6c-3.2,1.1-5.5,2.7-6.9,4.6
		c-0.9,1.3-1.1,2.6-0.6,4c0.5,1.3,1.4,2.2,2.8,2.8c1.8,0.7,5.6,0.7,11.5,0.1c5.8-0.6,10.3-0.7,13.3-0.2c3.1,0.5,5.7,1.6,8,3.5
		c2.3,1.8,4,4.5,5.2,8c1.1,3.1,1.3,6.4,0.5,9.7c-0.8,3.4-2.5,6.3-5.3,8.7c-2.7,2.4-6.5,4.5-11.2,6.2c-6.9,2.4-12.8,2.7-17.7,0.8
		C385,234.8,381.2,230.9,378.3,225z"/>
	<path class="st0" d="M436.3,225.7l-8.8-57.4l18.6-2.8c7-1.1,11.7-1.5,13.9-1.2c3.4,0.4,6.5,1.8,9.1,4.4c2.7,2.5,4.3,6.1,5,10.7
		c0.5,3.5,0.4,6.6-0.6,9.2c-0.9,2.6-2.2,4.7-4,6.4c-1.8,1.7-3.6,2.9-5.6,3.6c-2.7,1-6.6,1.9-11.9,2.7l-7.6,1.2l3.3,21.7L436.3,225.7
		z M440.6,176.2l2.5,16.3l6.3-1c4.6-0.7,7.6-1.5,9-2.3c1.4-0.8,2.5-2,3.2-3.4c0.7-1.4,0.9-3,0.6-4.7c-0.3-2.1-1.2-3.7-2.6-4.9
		c-1.4-1.2-3.1-1.8-5.1-1.8c-1.4,0-4.2,0.2-8.4,0.9L440.6,176.2z"/>
	<path class="st0" d="M486.3,189.6c0.3-5.9,1.4-10.8,3.3-14.8c1.5-2.9,3.4-5.5,5.8-7.7c2.4-2.2,5-3.9,7.7-4.9
		c3.7-1.4,7.9-1.9,12.6-1.7c8.5,0.4,15.3,3.4,20.2,8.9c4.9,5.5,7.1,13,6.7,22.5c-0.4,9.4-3.3,16.6-8.6,21.6
		c-5.3,5.1-12.3,7.4-20.8,7c-8.6-0.4-15.4-3.3-20.2-8.8C488.1,206.2,485.9,198.8,486.3,189.6z M498.4,189.8
		c-0.3,6.6,1,11.6,3.9,15.2c2.9,3.5,6.7,5.4,11.3,5.6c4.7,0.2,8.6-1.3,11.7-4.5c3.1-3.2,4.9-8.2,5.2-14.9c0.3-6.6-0.9-11.7-3.7-15.1
		c-2.8-3.4-6.6-5.2-11.4-5.4c-4.8-0.2-8.8,1.3-11.9,4.4C500.4,178.1,498.7,183.1,498.4,189.8z"/>
	<path class="st0" d="M547.7,222.3l14.5-56.3l11.1,2.8l13.4,43.5l9.7-37.6l10.6,2.7l-14.5,56.3l-11.4-2.9l-13.2-42.5l-9.4,36.7
		L547.7,222.3z"/>
	<path class="st0" d="M607,218.9l10.8,3.9c-1,3.8-1,6.9,0.1,9.4c1.1,2.5,3.3,4.6,6.5,6.1c3.4,1.6,6.3,2.1,8.7,1.5
		c2.4-0.6,4.1-1.9,5-3.8c0.6-1.2,0.7-2.5,0.4-3.7c-0.3-1.2-1.2-2.6-2.7-4.1c-1-1-3.5-3.1-7.4-6.3c-5-4.1-8.2-7.7-9.5-10.9
		c-1.8-4.4-1.8-8.7,0.2-12.9c1.3-2.7,3.2-4.8,5.8-6.4c2.6-1.6,5.6-2.3,9.1-2.2c3.4,0.1,7.2,1.2,11.2,3.1c6.6,3.1,10.9,6.9,12.8,11.4
		c2,4.5,1.9,9.2-0.3,14.1l-10.8-4.6c0.8-2.9,0.8-5.3-0.1-7.2c-0.9-1.9-2.9-3.5-5.9-5c-3.1-1.5-5.8-2-8.1-1.5
		c-1.5,0.3-2.6,1.1-3.2,2.5c-0.6,1.2-0.6,2.6,0.1,3.9c0.8,1.8,3.5,4.5,8.1,8.1c4.6,3.7,7.8,6.7,9.6,9.2c1.8,2.5,2.9,5.2,3.3,8.1
		c0.3,2.9-0.3,6-1.9,9.3c-1.4,3-3.6,5.4-6.5,7.2c-2.9,1.8-6.2,2.7-9.9,2.5c-3.7-0.2-7.8-1.4-12.3-3.5c-6.6-3.2-11-7.1-13.1-11.9
		C604.9,230.6,604.9,225.1,607,218.9z"/>
	<path class="st0" d="M663.1,235.5c3.6-4.7,7.2-8.2,11.1-10.3c2.8-1.6,5.9-2.6,9.1-3.1c3.2-0.5,6.3-0.4,9.1,0.3
		c3.8,0.9,7.6,2.8,11.4,5.7c6.8,5.1,10.7,11.4,11.7,18.7c0.9,7.3-1.5,14.8-7.1,22.3c-5.6,7.5-12.1,11.8-19.3,13s-14.3-0.8-21.1-5.9
		c-6.9-5.2-10.8-11.4-11.7-18.7C655.2,250.2,657.6,242.9,663.1,235.5z M673,242.4c-3.9,5.3-5.7,10.2-5.3,14.7
		c0.4,4.5,2.5,8.2,6.2,11c3.7,2.8,7.8,3.8,12.2,2.9c4.4-0.9,8.6-4,12.7-9.4c4-5.3,5.8-10.2,5.4-14.5c-0.4-4.4-2.5-8-6.4-10.9
		c-3.9-2.9-8-3.9-12.3-3C681.2,234,677,237.1,673,242.4z"/>
	<path class="st0" d="M695.4,297.1l43.6-38.4l16.3,18.5c4.1,4.7,6.7,8.4,7.8,11.2c1.1,2.8,1.2,5.7,0.3,8.7c-0.9,3-2.6,5.7-5.2,7.9
		c-3.3,2.9-6.8,4.3-10.6,4.2c-3.8,0-7.7-1.7-11.6-5.1c0.6,2.9,0.7,5.5,0.5,7.9c-0.2,2.4-1.1,6.2-2.7,11.2l-3.8,12.8l-9.3-10.5
		l3.9-14.7c1.4-5.2,2.2-8.7,2.3-10.3c0.1-1.6,0-3-0.5-4.2c-0.5-1.2-1.6-2.8-3.4-4.9l-1.6-1.8l-18.2,16L695.4,297.1z M728.3,283.7
		l5.7,6.5c3.7,4.2,6.2,6.7,7.5,7.4c1.3,0.7,2.6,1,4,0.8c1.4-0.2,2.7-0.8,4.1-2c1.5-1.3,2.3-2.7,2.5-4.3c0.2-1.6-0.2-3.2-1.2-4.8
		c-0.5-0.8-2.4-3-5.5-6.6l-6-6.9L728.3,283.7z"/>
	<path class="st0" d="M731.5,339.8l50.1-29.4l21.8,37.1l-8.5,5l-15.9-27l-11.1,6.5l14.8,25.1l-8.4,5l-14.8-25.1l-13.6,8l16.4,28
		l-8.4,5L731.5,339.8z"/>
	<path class="st0" d="M811.9,365.2l7.1,20.2c1.6,4.6,2.5,8.2,2.6,10.8c0.2,3.5-0.5,6.9-2.1,10c-1.6,3.1-4,5.9-7,8.4
		c-3.1,2.4-7.2,4.5-12.3,6.4c-4.5,1.6-8.6,2.4-12.3,2.4c-4.5,0-8.4-0.8-11.7-2.5c-2.5-1.3-4.9-3.3-7.1-6.2c-1.6-2.2-3.2-5.3-4.6-9.4
		l-7.3-20.8L811.9,365.2z M806.5,379.6l-36.3,12.8l2.9,8.3c1.1,3.1,2,5.3,2.9,6.5c1.1,1.6,2.4,2.9,3.9,3.7c1.5,0.8,3.6,1.2,6.3,1
		c2.7-0.1,6.2-0.9,10.4-2.4c4.2-1.5,7.4-3,9.4-4.6c2-1.5,3.4-3.2,4.2-5c0.8-1.8,1.1-3.8,0.8-6c-0.2-1.7-1.1-4.8-2.7-9.3L806.5,379.6
		z"/>
</g>
</svg>
